<?xml version="1.0"?>
<svg width="640" height="640" xmlns="http://www.w3.org/2000/svg" xmlns:svg="http://www.w3.org/2000/svg" xmlns:xlink="http://www.w3.org/1999/xlink">
 <!--!Font Awesome Free 7.1.0 by @fontawesome - https://fontawesome.com License - https://fontawesome.com/license/free Copyright 2025 Fonticons, Inc.-->
 <defs>
  <symbol height="800px" id="svg_3" viewBox="0 0 16 16" width="800px" xmlns="http://www.w3.org/2000/svg">
   <path d="m10.77,6.88l3.61,0c0.34,0 0.62,0.27 0.62,0.61l0,3.29a2.27,2.27 0 0 1 -2.27,2.27l-0.01,0a2.27,2.27 0 0 1 -2.28,-2.27l0,-3.58c0,-0.18 0.15,-0.32 0.33,-0.32zm2.44,-0.66c0.81,0 1.46,-0.65 1.46,-1.46c0,-0.8 -0.65,-1.46 -1.46,-1.46s-1.47,0.66 -1.47,1.46c0,0.81 0.66,1.46 1.47,1.46z" fill="#5059C9"/>
   <path d="m8.65,6.22a2.11,2.11 0 0 0 2.12,-2.11a2.11,2.11 0 0 0 -2.12,-2.11a2.11,2.11 0 0 0 -2.12,2.11c0,1.17 0.95,2.11 2.12,2.11zm2.82,0.66l-5.97,0a0.61,0.61 0 0 0 -0.59,0.62l0,3.75a3.67,3.67 0 0 0 3.58,3.75a3.67,3.67 0 0 0 3.58,-3.75l0,-3.75a0.61,0.61 0 0 0 -0.6,-0.62z" fill="#7B83EB"/>
   <path d="m8.81,6.88l0,5.25a0.6,0.6 0 0 1 -0.59,0.59l-3.03,0a3.95,3.95 0 0 1 -0.28,-1.47l0,-3.75a0.61,0.61 0 0 1 0.59,-0.62l3.31,0z" fill="#000000" opacity="0.1"/>
   <path d="m8.49,6.88l0,5.58a0.6,0.6 0 0 1 -0.6,0.59l-2.54,0a3.22,3.22 0 0 1 -0.27,-0.65a3.95,3.95 0 0 1 -0.17,-1.15l0,-3.75a0.61,0.61 0 0 1 0.59,-0.63l2.99,0l0,0.01z" fill="#000000" opacity="0.2"/>
   <path d="m8.49,6.88l0,4.92a0.6,0.6 0 0 1 -0.6,0.6l-2.81,0a3.95,3.95 0 0 1 -0.17,-1.15l0,-3.75a0.61,0.61 0 0 1 0.59,-0.63l2.99,0l0,0.01z" fill="#000000" opacity="0.2"/>
   <path d="m8.16,6.88l0,4.92a0.6,0.6 0 0 1 -0.59,0.6l-2.49,0a3.95,3.95 0 0 1 -0.17,-1.15l0,-3.75a0.61,0.61 0 0 1 0.59,-0.63l2.66,0l0,0.01z" fill="#000000" opacity="0.2"/>
   <path d="m8.81,5.2l0,1.02c-0.05,0 -0.1,0.01 -0.16,0.01c-0.05,0 -0.11,-0.01 -0.16,-0.01a2.12,2.12 0 0 1 -1.9,-1.62l1.63,0a0.6,0.6 0 0 1 0.59,0.59l0,0.01z" fill="#000000" opacity="0.1"/>
   <path d="m8.49,5.52l0,0.7a2.12,2.12 0 0 1 -1.79,-1.29l1.19,0a0.6,0.6 0 0 1 0.6,0.59z" fill="#000000" opacity="0.2"/>
   <path d="m8.49,5.52l0,0.7a2.12,2.12 0 0 1 -1.79,-1.29l1.19,0a0.6,0.6 0 0 1 0.6,0.59z" fill="#000000" opacity="0.2"/>
   <path d="m8.16,5.52l0,0.65a2.12,2.12 0 0 1 -1.46,-1.25l0.87,0a0.6,0.6 0 0 1 0.59,0.6z" fill="#000000" opacity="0.2"/>
   <path d="m1.6,4.92l5.97,0c0.33,0 0.59,0.27 0.59,0.6l0,5.96a0.6,0.6 0 0 1 -0.59,0.59l-5.97,0a0.6,0.6 0 0 1 -0.6,-0.59l0,-5.96c0,-0.33 0.27,-0.6 0.6,-0.6z" fill="url(#svg_2)"/>
   <path d="m6.15,7.19l-1.19,0l0,3.25l-0.76,0l0,-3.25l-1.19,0l0,-0.63l3.14,0l0,0.63z" fill="#ffffff"/>
   <defs>
    <linearGradient gradientUnits="userSpaceOnUse" id="svg_2" x1="2.24" x2="6.91" y1="4.46" y2="12.55">
     <stop stop-color="#5A62C3"/>
     <stop offset="0.5" stop-color="#4D55BD"/>
     <stop offset="1" stop-color="#3940AB"/>
    </linearGradient>
   </defs>
  </symbol>
  <symbol height="50px" id="svg_7" viewBox="0 0 50 50" width="50px" xmlns="http://www.w3.org/2000/svg">
   <path d="m27.5,5c-3.42,0 -6.23,2.64 -6.48,6l2.98,0c2.76,0 5,2.24 5,5l0,1.82c2.87,-0.67 5,-3.25 5,-6.32c0,-3.59 -2.91,-6.5 -6.5,-6.5zm15,4a4.5,4.5 0 0 0 0,9a4.5,4.5 0 0 0 0,-9zm-36.5,4c-1.65,0 -3,1.35 -3,3l0,18c0,1.65 1.35,3 3,3l18,0c1.65,0 3,-1.35 3,-3l0,-18c0,-1.65 -1.35,-3 -3,-3l-18,0zm4,6l10,0l0,2l-4,0l0,10l-2,0l0,-10l-4,0l0,-2zm19,2l0,13c0,2.76 -2.24,5 -5,5l-5.8,0c0.4,1.96 1.37,3.71 2.73,5.07c1.81,1.81 4.31,2.93 7.07,2.93c5.52,0 10,-4.48 10,-10l0,-16l-9,0zm11,0l0,16c0,0.82 -0.08,1.62 -0.23,2.39c0.83,0.39 1.75,0.61 2.73,0.61c3.59,0 6.5,-2.91 6.5,-6.5l0,-12.5l-9,0z"/>
  </symbol>
 </defs>
 <g class="layer">
  <title>Layer 1</title>
  <path d="m218.48,-3.5c92.83,0 168.12,70.29 168.12,156.94c0,9 -7.75,16.24 -17.39,16.24c-9.64,0 -17.39,-7.24 -17.39,-16.24c0,-68.73 -59.71,-124.47 -133.34,-124.47c-9.64,0 -17.39,-7.24 -17.39,-16.24c0,-9 7.75,-16.24 17.39,-16.24zm5.8,129.88c12.83,0 23.19,9.67 23.19,21.65c0,11.97 -10.36,21.65 -23.19,21.65c-12.83,0 -23.19,-9.67 -23.19,-21.65c0,-11.97 10.36,-21.65 23.19,-21.65zm-23.19,-48.71c0,-9 7.75,-16.24 17.39,-16.24c54.42,0 98.55,41.2 98.55,92c0,9 -7.75,16.24 -17.39,16.24c-9.64,0 -17.39,-7.24 -17.39,-16.24c0,-32.88 -28.55,-59.53 -63.77,-59.53c-9.64,0 -17.39,-7.24 -17.39,-16.24zm-127.47,-58.58c14.28,-3.65 29.2,3.18 34.86,15.9l29.35,65.82c5,11.16 1.52,24.08 -8.55,31.79l-31.96,24.42c23.55,48.44 64.49,87.94 115.44,111.55l27.97,-31.93c8.19,-9.4 22.03,-12.58 34.06,-7.98l70.51,27.46c13.62,5.28 20.94,19.21 17.03,32.54l-1.09,3.72c-12.75,43.77 -58.04,81.11 -113.34,70.22c-126.81,-25.1 -226.6,-118.25 -253.48,-236.63c-11.67,-51.61 28.33,-93.89 75.15,-105.87l3.99,-1.01l0.07,0z" fill="#3891ea" id="svg_1" transform="rotate(6.40579 189.489 180.511)"/>
  <use id="svg_4" transform="matrix(1 0 0 1 0 0) matrix(13.3333 0 0 13.3333 0 0)" x="0" xlink:href="#svg_3" y="0"/>
  <use fill="#8334d8" id="svg_8" transform="matrix(9.39571 0 0 9.1967 -662.363 -675.204)" x="89.51" xlink:href="#svg_7" y="96.18"/>
 </g>
</svg>