<?xml version="1.0"?>
<svg width="640" height="640" xmlns="http://www.w3.org/2000/svg" xmlns:svg="http://www.w3.org/2000/svg">
 <!--!Font Awesome Free 7.1.0 by @fontawesome - https://fontawesome.com License - https://fontawesome.com/license/free Copyright 2025 Fonticons, Inc.-->
 <g class="layer">
  <title>Layer 1</title>
  <path d="m598.6,297.4c12.5,12.5 12.5,32.8 0,45.3l-128,128c-9.2,9.2 -22.9,11.9 -34.9,6.9c-12,-5 -19.7,-16.7 -19.7,-29.6l0,-64l-336,0c-26.5,0 -48,-21.5 -48,-48l0,-32c0,-26.5 21.5,-48 48,-48l336,0l0,-64c0,-12.9 7.8,-24.6 19.8,-29.6c12,-5 25.7,-2.2 34.9,6.9l128,128l-0.1,0.1z" id="svg_1" transform="matrix(1 0 0 1 0 0)"/>
  <path d="m589.55,316.58c11.91,11.56 11.91,30.34 0,41.9l-122,118.4c-8.77,8.51 -21.83,11.01 -33.26,6.38c-11.44,-4.63 -18.78,-15.45 -18.78,-27.38l0,-59.2l-320.25,0c-25.26,0 -45.75,-19.89 -45.75,-44.4l0,-29.6c0,-24.51 20.49,-44.4 45.75,-44.4l320.25,0l0,-59.2c0,-11.93 7.43,-22.76 18.87,-27.38c11.44,-4.63 24.5,-2.04 33.26,6.38l122,118.4l-0.1,0.09z" fill="#20e820" id="svg_4"/>
 </g>
</svg>